<svg width="77" height="77" viewBox="0 0 77 77" fill="none" xmlns="http://www.w3.org/2000/svg">
<path d="M62.4481 0H25.1954C25.1811 0 25.1672 0.00166307 25.1529 0.00216199C25.1391 0.00266091 25.1253 0.00332613 25.1115 0.00415767C25.0581 0.00765011 25.0054 0.0136371 24.9541 0.0237819C24.9533 0.0239482 24.9525 0.0239482 24.9518 0.0241145C24.8963 0.0350907 24.8425 0.0505572 24.79 0.0686847C24.7807 0.0718445 24.7715 0.0755032 24.7622 0.0788294C24.7125 0.0972894 24.6641 0.118078 24.6175 0.142525C24.6147 0.144022 24.6117 0.145186 24.6089 0.146683C24.5602 0.172626 24.5141 0.202395 24.4695 0.234326C24.4595 0.241477 24.4499 0.248961 24.4401 0.256445C24.396 0.290205 24.3533 0.325629 24.3142 0.364711C24.314 0.364877 24.3137 0.365043 24.3135 0.36521L11.009 13.6697C11.0088 13.6699 11.0087 13.6701 11.0085 13.6702C10.9694 13.7095 10.9338 13.7521 10.9002 13.7961C10.8927 13.8061 10.8853 13.8159 10.8779 13.8259C10.846 13.8703 10.8164 13.9164 10.7905 13.9648C10.7888 13.9681 10.7873 13.9714 10.7856 13.9748C10.7617 14.0207 10.7411 14.0684 10.7228 14.1174C10.7191 14.1273 10.7155 14.1369 10.712 14.1469C10.694 14.1989 10.6787 14.2522 10.6677 14.3072C10.6674 14.3092 10.6672 14.3114 10.6667 14.3134C10.6571 14.3634 10.6513 14.4146 10.6476 14.4665C10.6466 14.4812 10.6459 14.4956 10.6454 14.5103C10.6453 14.5242 10.6436 14.5379 10.6436 14.5518V73.0918C10.6436 75.2468 12.3968 77 14.5518 77H62.4481C64.6031 77 66.3563 75.2468 66.3563 73.0918V3.90821C66.3563 1.75321 64.6031 0 62.4481 0ZM23.9481 4.25845V11.8909C23.9481 12.6704 23.314 13.3045 22.5345 13.3045H14.9021L23.9481 4.25845ZM63.8618 73.0918C63.8618 73.8713 63.2276 74.5054 62.4481 74.5054H14.5518C13.7723 74.5054 13.1382 73.8713 13.1382 73.0918V15.7991H22.5345C24.6895 15.7991 26.4427 14.0459 26.4427 11.8909V2.4946H62.4481C63.2276 2.4946 63.8618 3.12873 63.8618 3.90821V73.0918Z" fill="white"/>
<path d="M22.5345 35.7558H54.4654C55.1543 35.7558 55.7127 35.1975 55.7127 34.5085C55.7127 33.8195 55.1543 33.2612 54.4654 33.2612H22.5345C21.8457 33.2612 21.2872 33.8195 21.2872 34.5085C21.2872 35.1975 21.8457 35.7558 22.5345 35.7558Z" fill="white"/>
<path d="M22.5345 42.4082H54.4654C55.1543 42.4082 55.7127 41.8499 55.7127 41.1609C55.7127 40.4719 55.1543 39.9136 54.4654 39.9136H22.5345C21.8457 39.9136 21.2872 40.4719 21.2872 41.1609C21.2872 41.8499 21.8457 42.4082 22.5345 42.4082Z" fill="white"/>
<path d="M22.5345 49.0605H38.5C39.1888 49.0605 39.7473 48.5022 39.7473 47.8132C39.7473 47.1242 39.1888 46.5659 38.5 46.5659H22.5345C21.8457 46.5659 21.2872 47.1242 21.2872 47.8132C21.2872 48.5022 21.8457 49.0605 22.5345 49.0605Z" fill="white"/>
<path d="M39.7473 54.4656C39.7473 53.7766 39.1888 53.2183 38.5 53.2183H22.5345C21.8457 53.2183 21.2872 53.7766 21.2872 54.4656C21.2872 55.1546 21.8457 55.7129 22.5345 55.7129H38.5C39.1888 55.7129 39.7473 55.1546 39.7473 54.4656Z" fill="white"/>
<path d="M45.0691 21.5367C45.0691 20.8477 44.5106 20.2894 43.8218 20.2894C43.133 20.2894 42.5745 20.8477 42.5745 21.5367C42.5745 23.9682 44.8293 25.933 47.8963 26.3567V26.5259C47.8963 27.2149 48.4548 27.7732 49.1436 27.7732C49.8325 27.7732 50.3909 27.2149 50.3909 26.5259V26.3567C53.4579 25.9328 55.7127 23.9681 55.7127 21.5367C55.7127 19.1053 53.4579 17.1403 50.3909 16.7166V11.9393C51.8933 12.2528 53.2181 13.1031 53.2181 14.2192C53.2181 14.9082 53.7766 15.4665 54.4654 15.4665C55.1543 15.4665 55.7127 14.9082 55.7127 14.2192C55.7127 11.7876 53.4579 9.82285 50.3909 9.3991V9.22997C50.3909 8.54096 49.8325 7.98267 49.1436 7.98267C48.4548 7.98267 47.8963 8.54096 47.8963 9.22997V9.3991C44.8293 9.82302 42.5745 11.7878 42.5745 14.2192C42.5745 16.6506 44.8293 18.6155 47.8963 19.0392V23.8166C46.3939 23.5031 45.0691 22.6529 45.0691 21.5367ZM53.2181 21.5367C53.2181 22.6529 51.8933 23.5031 50.3909 23.8166V19.2568C51.8933 19.5702 53.2181 20.4204 53.2181 21.5367ZM45.0691 14.2192C45.0691 13.1029 46.3939 12.2528 47.8963 11.9393V16.4991C46.3939 16.1856 45.0691 15.3354 45.0691 14.2192Z" fill="white"/>
<path d="M56.9201 53.2995C56.3203 52.9607 55.5594 53.1721 55.2206 53.7719L52.6558 58.3116L52.3044 58.0412C52.0083 57.8132 51.6254 57.7297 51.2615 57.8145C50.8975 57.899 50.5905 58.1421 50.425 58.4771L49.1293 61.1006L48.7129 60.6231C48.1019 59.9226 47.193 59.6093 46.2798 59.7869C45.3673 59.9637 44.6404 60.5937 44.3354 61.4716L42.9043 65.5903L39.4993 61.2895C39.2876 61.0221 38.9756 60.8529 38.6359 60.8217C38.2969 60.7916 37.9587 60.8995 37.7015 61.1237L34.0864 64.2769C33.5672 64.7297 33.5134 65.5177 33.9661 66.0367C34.4192 66.5559 35.2068 66.6093 35.726 66.157L38.3553 63.8636L41.6066 67.9704C41.973 68.4329 42.5273 68.6956 43.1057 68.6956C43.2118 68.6956 43.3187 68.6866 43.4253 68.6687C44.1137 68.5521 44.6836 68.07 44.9126 67.4107L46.6916 62.2907C46.6979 62.2725 46.7074 62.2454 46.7545 62.2361C46.801 62.227 46.8203 62.2486 46.8328 62.2631L48.4789 64.1506C48.753 64.465 49.1664 64.6216 49.5797 64.5677C49.9933 64.514 50.3527 64.2571 50.5373 63.8832L51.9878 60.9464L52.273 61.1659C52.5596 61.3866 52.9276 61.4713 53.282 61.4001C53.6364 61.3281 53.9421 61.1059 54.12 60.7912L57.3923 54.9994C57.7314 54.3994 57.5198 53.6384 56.9201 53.2995Z" fill="white"/>
</svg>
