<svg width="79" height="79" viewBox="0 0 79 79" fill="none" xmlns="http://www.w3.org/2000/svg">
<path d="M72.1749 37.4523V36.002H74.9903C75.697 36.002 76.27 35.429 76.27 34.7223V30.5419H77.7203C78.427 30.5419 79 29.969 79 29.2622V25.1672C79 24.708 78.754 24.2839 78.3552 24.0561L40.1349 2.2159C39.7414 1.99118 39.2584 1.99118 38.8651 2.2159L0.644797 24.0561C0.246043 24.2839 0 24.7079 0 25.1672V29.2622C0 29.969 0.572963 30.5419 1.2797 30.5419H2.73002V34.7223C2.73002 35.429 3.30298 36.002 4.00972 36.002H6.82505V37.4523C6.82505 38.4465 7.37703 39.3135 8.19007 39.7651V63.4728H4.00972C3.30298 63.4728 2.73002 64.0458 2.73002 64.7525V68.9329H1.2797C0.572963 68.9329 0 69.5058 0 70.2126V75.6726C0 76.3793 0.572963 76.9523 1.2797 76.9523H77.7203C78.427 76.9523 79 76.3793 79 75.6726V70.2126C79 69.5058 78.427 68.9329 77.7203 68.9329H76.27V64.7525C76.27 64.0458 75.697 63.4728 74.9903 63.4728H70.8099V39.7651C71.623 39.3135 72.1749 38.4465 72.1749 37.4523ZM69.6156 37.4523C69.6156 37.4994 69.5773 37.5376 69.5302 37.5376H64.0702C64.0231 37.5376 63.9849 37.4994 63.9849 37.4523V36.002H69.6156V37.4523ZM57.1598 63.4728V39.7651C57.9729 39.3135 58.5248 38.4465 58.5248 37.4523V36.002H61.4255V37.4523C61.4255 38.4465 61.9775 39.3135 62.7905 39.7651V63.4728H57.1598ZM51.6998 63.4728V40.097H54.6004V63.4728H51.6998ZM43.5097 63.4728V39.7651C44.3228 39.3135 44.8747 38.4465 44.8747 37.4523V36.002H47.7754V37.4523C47.7754 38.4465 48.3274 39.3135 49.1404 39.7651V63.4728H43.5097ZM38.0497 63.4728V40.097H40.9503V63.4728H38.0497ZM29.8596 63.4728V39.7651C30.6726 39.3135 31.2246 38.4465 31.2246 37.4523V36.002H34.1253V37.4523C34.1253 38.4465 34.6772 39.3135 35.4903 39.7651V63.4728H29.8596ZM24.3996 63.4728V40.097H27.3002V63.4728H24.3996ZM16.2095 63.4728V39.7651C17.0225 39.3135 17.5745 38.4465 17.5745 37.4523V36.002H20.4752V37.4523C20.4752 38.4465 21.0271 39.3135 21.8402 39.7651V63.4728H16.2095ZM28.6652 36.002V37.4523C28.6652 37.4994 28.627 37.5376 28.5799 37.5376H23.1199C23.0728 37.5376 23.0346 37.4994 23.0346 37.4523V36.002H28.6652ZM42.3153 36.002V37.4523C42.3153 37.4994 42.2771 37.5376 42.23 37.5376H36.77C36.7229 37.5376 36.6847 37.4994 36.6847 37.4523V36.002H42.3153ZM55.9654 36.002V37.4523C55.9654 37.4994 55.9272 37.5376 55.8801 37.5376H50.4201C50.373 37.5376 50.3348 37.4994 50.3348 37.4523V36.002H55.9654ZM2.5594 25.9098L39.5 4.80089L76.4406 25.9098V27.9825H2.5594V25.9098ZM5.28942 30.5419H73.7106V33.4426H5.28942V30.5419ZM15.0151 36.002V37.4523C15.0151 37.4994 14.9769 37.5376 14.9298 37.5376H9.46976C9.42267 37.5376 9.38445 37.4994 9.38445 37.4523V36.002H15.0151ZM10.7495 40.097H13.6501V63.4728H10.7495V40.097ZM76.4406 74.3929H2.5594V71.4922H76.4406V74.3929ZM73.7106 68.9329H5.28942V66.0322H73.7106V68.9329ZM65.3499 63.4728V40.097H68.2505V63.4728H65.3499Z" fill="white"/>
</svg>
