<svg width="89" height="89" viewBox="0 0 89 89" fill="none" xmlns="http://www.w3.org/2000/svg">
<path d="M84.4827 73.5279H82.8488V71.894C82.8488 69.4031 80.8224 67.3767 78.3315 67.3767H62.9536C60.4627 67.3767 58.4363 69.4031 58.4363 71.894V73.5279H56.8024C54.3115 73.5279 52.2851 75.5543 52.2851 78.0452V81.1208C52.2851 81.917 52.9306 82.5625 53.7268 82.5625H87.5583C88.3545 82.5625 89 81.917 89 81.1208V78.0452C89 75.5543 86.9736 73.5279 84.4827 73.5279ZM61.3197 71.894C61.3197 70.993 62.0526 70.2601 62.9536 70.2601H78.3315C79.2325 70.2601 79.9654 70.993 79.9654 71.894V73.5279H61.3197V71.894ZM86.1166 79.6791H55.1685V78.0452C55.1685 77.1442 55.9014 76.4113 56.8024 76.4113H84.4827C85.3837 76.4113 86.1166 77.1442 86.1166 78.0452V79.6791Z" fill="white"/>
<path d="M55.1687 42.4891L55.1006 42.5571C53.3393 44.3185 53.3393 47.1842 55.1006 48.9453C55.9537 49.7984 57.0882 50.2684 58.2948 50.2684C59.5014 50.2684 60.6357 49.7984 61.489 48.9453L70.1881 40.2464C71.0412 39.3933 71.5112 38.2588 71.5112 37.0522C71.5112 35.8456 71.0412 34.7111 70.1881 33.858C69.335 33.0049 68.2005 32.5349 66.9939 32.5349C65.7873 32.5349 64.6528 33.0049 63.7997 33.858L63.7319 33.9261L60.3879 30.5819C60.6757 29.5745 60.4249 28.4442 59.6329 27.6522L50.2967 18.3161C49.5048 17.5241 48.3745 17.2733 47.367 17.5612L44.0229 14.2173L44.0908 14.1492C44.9438 13.2961 45.4138 12.1616 45.4138 10.955C45.4138 9.74843 44.9438 8.61411 44.0908 7.76083C43.2377 6.90773 42.1031 6.43774 40.8966 6.43774C39.69 6.43774 38.5555 6.90773 37.7024 7.76083L29.0034 16.46C28.1503 17.313 27.6803 18.4476 27.6803 19.6542C27.6803 20.8607 28.1503 21.9953 29.0034 22.8483C29.884 23.7291 31.0408 24.1693 32.1976 24.1693C33.3544 24.1693 34.5112 23.7289 35.3918 22.8483L35.4599 22.7803L38.803 26.1235C38.7273 26.3882 38.6864 26.6644 38.6864 26.9473C38.6864 27.7433 38.9962 28.4915 39.5591 29.0541L39.9454 29.4405L36.9565 32.4296C36.0027 33.3834 35.57 34.6607 35.6492 35.9116L1.32308 70.2375C0.469989 71.0906 0 72.2249 0 73.4317C0 74.6385 0.469989 75.7728 1.32308 76.6259C2.17617 77.479 3.31068 77.949 4.51728 77.949C5.72387 77.949 6.85838 77.479 7.71148 76.6259L42.0374 42.2999C42.1333 42.3059 42.2293 42.3136 42.3252 42.3136C43.4818 42.3136 44.6388 41.8732 45.5194 40.9926L48.5085 38.0037L48.8948 38.3901C49.4577 38.9529 50.2058 39.263 51.0016 39.263C51.2846 39.263 51.5608 39.222 51.8255 39.1463L55.1687 42.4891ZM66.9939 35.4191C67.4124 35.4191 67.8309 35.5784 68.1494 35.8969C68.4579 36.2055 68.628 36.6157 68.628 37.0522C68.628 37.4888 68.4581 37.899 68.1494 38.2077L59.4503 46.9066C58.813 47.5438 57.7766 47.5436 57.1395 46.9066C56.5025 46.2696 56.5025 45.2329 57.1395 44.5959L65.8387 35.8967C66.1572 35.5782 66.5755 35.4191 66.9939 35.4191ZM57.2076 40.4504L54.128 37.3707L58.6135 32.8852L61.6931 35.9648L57.2076 40.4504ZM31.0424 20.8094C30.4053 20.1724 30.4053 19.1357 31.0424 18.4987L39.7413 9.79956C40.0498 9.49104 40.4602 9.32092 40.8968 9.32092C41.3333 9.32092 41.7435 9.49085 42.052 9.79956C42.6891 10.4366 42.6891 11.4733 42.052 12.1103L33.3529 20.8094C32.7159 21.4463 31.6794 21.4463 31.0424 20.8094ZM41.9842 16.2558L45.0638 19.3354L40.5782 23.821L37.4986 20.7414L41.9842 16.2558ZM5.67255 74.587C5.36403 74.8955 4.95382 75.0656 4.51728 75.0656C4.08074 75.0656 3.67053 74.8957 3.36201 74.587C3.05349 74.2784 2.88337 73.8682 2.88337 73.4317C2.88337 72.9951 3.0533 72.5849 3.36201 72.2764L36.8918 38.7465C36.914 38.7697 36.9333 38.7949 36.9563 38.818L39.131 40.9926C39.1539 41.0155 39.179 41.0347 39.2025 41.0572L5.67255 74.587ZM43.4806 38.9537C42.8436 39.5907 41.8071 39.5907 41.1699 38.9537L38.9953 36.7791C38.3582 36.142 38.3582 35.1054 38.9953 34.4683L41.9842 31.4792L46.4697 35.9648L43.4806 38.9537ZM41.5976 27.0152C41.5907 27.0083 41.5695 26.9871 41.5695 26.9473C41.5695 26.9076 41.5907 26.8862 41.5976 26.8793L48.1219 20.355C48.1407 20.3364 48.1653 20.3269 48.1899 20.3269C48.2146 20.3269 48.2392 20.3364 48.258 20.355L57.594 29.691C57.6314 29.7285 57.6314 29.7896 57.594 29.8271L51.0697 36.3514C51.0627 36.3583 51.0414 36.3794 51.0016 36.3794C50.9618 36.3794 50.9407 36.3583 50.9336 36.3514L41.5976 27.0152Z" fill="white"/>
</svg>
