<svg width="83" height="83" viewBox="0 0 83 83" fill="none" xmlns="http://www.w3.org/2000/svg">
<path d="M72.9611 34.6402V4.21274C72.9611 1.88982 71.0713 0 68.7484 0H14.2516C11.9287 0 10.0389 1.88982 10.0389 4.21274V34.6402C8.3735 35.2028 7.17062 36.7789 7.17062 38.6318V78.7873C7.17062 81.1102 9.06044 83 11.3834 83H71.6166C73.9396 83 75.8294 81.1102 75.8294 78.7873V38.6318C75.8294 36.7789 74.6265 35.2028 72.9611 34.6402ZM64.5941 34.419L47.5095 21.4022L70.2648 4.06485C70.2693 4.11361 70.2721 4.16273 70.2721 4.21274V34.419H64.5941ZM12.7279 4.21274C12.7279 4.16291 12.7305 4.11361 12.7354 4.06485L35.4894 21.4013L18.4034 34.419H12.7279V4.21274ZM44.1619 20.5722C42.5946 21.7663 40.4056 21.7663 38.8383 20.5722L15.3663 2.68898H67.6335L44.1619 20.5722ZM37.7322 23.0729C38.8798 23.7938 40.1899 24.155 41.5 24.155C42.8097 24.155 44.1192 23.7941 45.2665 23.0738L60.1572 34.419H22.8404L37.7322 23.0729ZM73.1404 78.7873C73.1404 79.6275 72.4568 80.311 71.6166 80.311H11.3834C10.5431 80.311 9.85961 79.6275 9.85961 78.7873V38.6318C9.85961 37.7915 10.5431 37.108 11.3834 37.108H71.6166C72.4568 37.108 73.1404 37.7915 73.1404 38.6318V78.7873Z" fill="white"/>
<path d="M18.554 41.5896C16.2311 41.5896 14.3412 43.4794 14.3412 45.8023C14.3412 48.1253 16.2311 50.0151 18.554 50.0151C20.8769 50.0151 22.7667 48.1253 22.7667 45.8023C22.7667 43.4794 20.8769 41.5896 18.554 41.5896ZM18.554 47.3261C17.7138 47.3261 17.0302 46.6426 17.0302 45.8023C17.0302 44.9621 17.7138 44.2786 18.554 44.2786C19.3942 44.2786 20.0778 44.9621 20.0778 45.8023C20.0778 46.6426 19.3942 47.3261 18.554 47.3261Z" fill="white"/>
<path d="M67.3143 73.1404H55.8413C55.0986 73.1404 54.4968 73.7424 54.4968 74.4849C54.4968 75.2274 55.0986 75.8294 55.8413 75.8294H67.3143C68.0569 75.8294 68.6587 75.2274 68.6587 74.4849C68.6587 73.7424 68.0569 73.1404 67.3143 73.1404Z" fill="white"/>
<path d="M67.3142 67.4038H42.9341C42.1914 67.4038 41.5896 68.0058 41.5896 68.7483C41.5896 69.4908 42.1914 70.0928 42.9341 70.0928H67.3142C68.0569 70.0928 68.6587 69.4908 68.6587 68.7483C68.6587 68.0058 68.0569 67.4038 67.3142 67.4038Z" fill="white"/>
<path d="M67.3142 61.6675H42.9341C42.1914 61.6675 41.5896 62.2695 41.5896 63.012C41.5896 63.7545 42.1914 64.3565 42.9341 64.3565H67.3142C68.0569 64.3565 68.6587 63.7545 68.6587 63.012C68.6587 62.2695 68.0569 61.6675 67.3142 61.6675Z" fill="white"/>
</svg>
