<svg width="86" height="86" viewBox="0 0 86 86" fill="none" xmlns="http://www.w3.org/2000/svg">
<g clip-path="url(#clip0)">
<path d="M0.00305939 59.4037C0.00286865 59.3842 0.000831604 59.3651 0.000831604 59.3456C0.000831604 59.3413 0.00138855 59.337 0.00157166 59.3326C0.00175476 59.301 0.00399017 59.2694 0.00640106 59.2377C0.00751495 59.2222 0.00826263 59.2068 0.00993347 59.1916C0.0129013 59.1643 0.0177307 59.1372 0.022377 59.1099C0.0257187 59.0904 0.0285034 59.0707 0.0327759 59.0513C0.0374222 59.0304 0.0433655 59.0096 0.0489349 58.9886C0.0556259 58.9635 0.0619431 58.9384 0.069931 58.9141C0.0751266 58.8981 0.0816269 58.8821 0.0873871 58.8662C0.0977859 58.8377 0.108376 58.8097 0.120636 58.7822C0.12249 58.7779 0.123795 58.7735 0.125839 58.769L14.8604 26.3526V22.1037H14.7676C13.18 22.1037 11.8885 20.8122 11.8885 19.2246V19.004C11.8885 17.5834 12.9064 16.3881 14.3088 16.1617L38.6358 12.236V9.74159C37.7125 8.7068 37.1499 7.34362 37.1499 5.85097C37.1499 2.62476 39.7746 0 43.0008 0C46.227 0 48.8518 2.62476 48.8518 5.85097C48.8518 7.34362 48.2892 8.7068 47.3658 9.74159V12.1006L71.7075 16.1576C73.1014 16.39 74.1131 17.5843 74.1131 18.9975V19.2246C74.1131 20.8122 72.8216 22.1037 71.2341 22.1037H71.1412V26.3526L85.876 58.769C85.878 58.7733 85.8793 58.7779 85.8812 58.7822C85.8933 58.8095 85.9039 58.8377 85.9143 58.866C85.9202 58.882 85.9265 58.8979 85.9319 58.9141C85.9399 58.9384 85.9464 58.9635 85.9529 58.9886C85.9585 59.0096 85.9644 59.0304 85.9691 59.0513C85.9731 59.0707 85.9761 59.0904 85.9795 59.1099C85.9841 59.1372 85.9889 59.1643 85.9919 59.1916C85.9936 59.2068 85.9941 59.2224 85.9954 59.2378C85.9978 59.2694 85.9999 59.301 86.0003 59.3324C86.0003 59.3368 86.001 59.3411 86.001 59.3454C86.001 59.3651 85.999 59.3842 85.9988 59.4039C85.998 59.4195 85.9982 59.4353 85.9969 59.4509C85.91 65.1809 78.806 69.6544 69.7481 69.6544C60.6903 69.6544 53.5863 65.1809 53.4995 59.4511C53.4982 59.4355 53.4984 59.4197 53.4977 59.4039C53.4975 59.3844 53.4954 59.3653 53.4954 59.3458C53.4954 59.3415 53.496 59.3372 53.4962 59.3328C53.4964 59.3012 53.4986 59.2696 53.501 59.2378C53.5021 59.2224 53.5029 59.207 53.5045 59.1918C53.5075 59.1645 53.5123 59.1373 53.517 59.11C53.5203 59.0905 53.5231 59.0709 53.5274 59.0515C53.532 59.0305 53.538 59.0097 53.5435 58.9888C53.5502 58.9637 53.5565 58.9386 53.5645 58.9143C53.5697 58.8983 53.5762 58.8823 53.582 58.8664C53.5924 58.8379 53.603 58.8099 53.6152 58.7824C53.6171 58.7781 53.6184 58.7737 53.6204 58.7692L68.355 26.3526V22.1037H47.3658V52.3699C48.2509 52.8616 48.8518 53.8054 48.8518 54.8877V75.4099L57.6765 78.1677C59.5086 78.7403 60.7395 80.4146 60.7395 82.3341V84.6069C60.7395 85.3763 60.1159 86 59.3464 86H26.6553C25.8857 86 25.2622 85.3763 25.2622 84.6069V82.3339C25.2622 80.4145 26.4931 78.7402 28.3251 78.1675L37.1499 75.4099V54.8877C37.1499 53.8054 37.7507 52.8616 38.6358 52.3699V22.1037H17.6466V26.3526L32.3814 58.7692C32.3834 58.7735 32.3847 58.7781 32.3866 58.7824C32.3987 58.8097 32.4093 58.8379 32.4197 58.8662C32.4256 58.8821 32.4319 58.8981 32.4373 58.9143C32.4453 58.9386 32.4518 58.9637 32.4583 58.9888C32.4639 59.0097 32.4698 59.0305 32.4745 59.0515C32.4785 59.0709 32.4815 59.0905 32.4849 59.11C32.4895 59.1373 32.4943 59.1645 32.4973 59.1918C32.499 59.207 32.4995 59.2226 32.5008 59.238C32.5033 59.2696 32.5053 59.3012 32.5057 59.3326C32.5057 59.337 32.5064 59.3413 32.5064 59.3456C32.5064 59.3653 32.5044 59.3844 32.5042 59.4041C32.5034 59.4197 32.5036 59.4355 32.5023 59.4511C32.4154 65.1809 25.3114 69.6544 16.2535 69.6544C7.19566 69.6544 0.0916595 65.1809 0.00491333 59.4511C0.00361633 59.4353 0.00379944 59.4195 0.00305939 59.4037ZM69.7481 30.0211L57.0521 57.9525H82.4442L69.7481 30.0211ZM69.7481 66.8682C76.1987 66.8682 81.7643 64.1783 82.9721 60.7387H56.524C57.7319 64.1783 63.2976 66.8682 69.7481 66.8682ZM39.936 54.8877V75.041H46.0656V54.8877C46.0656 54.8364 46.0238 54.7948 45.9727 54.7948H40.0289C39.9778 54.7948 39.936 54.8364 39.936 54.8877ZM44.5797 52.0086V11.4837C44.077 11.6249 43.5478 11.7019 43.0008 11.7019C42.4538 11.7019 41.9246 11.6249 41.422 11.4837V52.0086H44.5797ZM43.0008 2.78618C41.3109 2.78618 39.936 4.16106 39.936 5.85097C39.936 7.54088 41.3109 8.91577 43.0008 8.91577C44.6907 8.91577 46.0656 7.54088 46.0656 5.85097C46.0656 4.16106 44.6907 2.78618 43.0008 2.78618ZM71.2341 19.3175C71.2852 19.3175 71.327 19.2759 71.327 19.2246V18.9975C71.327 18.9518 71.2943 18.9133 71.2493 18.9059L47.3658 14.9254V19.3175H71.2341ZM28.0483 82.3339V83.2138H57.9533V82.3339C57.9533 81.6396 57.5081 81.0339 56.8453 80.827L47.246 77.8272H38.7554L29.1561 80.827C28.4936 81.0341 28.0483 81.6396 28.0483 82.3339ZM38.6358 15.0584L14.7529 18.9124C14.7076 18.9196 14.6747 18.9583 14.6747 19.0041V19.2248C14.6747 19.2761 14.7165 19.3177 14.7676 19.3177H38.6358V15.0584ZM16.2535 30.0211L3.55748 57.9525H28.9496L16.2535 30.0211ZM16.2535 66.8682C22.7041 66.8682 28.2698 64.1783 29.4775 60.7387H3.0294C4.2373 64.1783 9.80297 66.8682 16.2535 66.8682Z" fill="white"/>
</g>
<defs>
<clipPath id="clip0">
<rect width="86" height="86" fill="white" transform="matrix(-1 0 0 1 86 0)"/>
</clipPath>
</defs>
</svg>
