<svg width="77" height="77" viewBox="0 0 77 77" fill="none" xmlns="http://www.w3.org/2000/svg">
<g clip-path="url(#clip0)">
<path d="M45.4156 42.6676C46.9928 43.5548 47.8975 44.7016 47.8975 45.8143C47.8975 46.5034 48.4558 47.0617 49.1449 47.0617C49.834 47.0617 50.3924 46.5034 50.3924 45.8143C50.3924 42.5944 47.1005 39.9301 42.4088 38.9669V37.1654C42.4088 36.4763 41.8504 35.918 41.1613 35.918C40.4722 35.918 39.9139 36.4763 39.9139 37.1654V38.6294C39.4507 38.5973 38.9796 38.5792 38.5001 38.5792C38.0206 38.5792 37.5496 38.5975 37.0864 38.6294V37.1654C37.0864 36.4763 36.528 35.918 35.8389 35.918C35.1498 35.918 34.5915 36.4763 34.5915 37.1654V38.9669C29.8998 39.9301 26.6079 42.5944 26.6079 45.8143C26.6079 49.0342 29.8998 51.6986 34.5915 52.6617V62.0817C33.4786 61.8129 32.459 61.4281 31.5847 60.9362C30.0074 60.0491 29.1028 58.9021 29.1028 57.7895C29.1028 57.1005 28.5444 56.5421 27.8553 56.5421C27.1662 56.5421 26.6079 57.1005 26.6079 57.7895C26.6079 61.0094 29.8998 63.6738 34.5915 64.637V66.4384C34.5915 67.1275 35.1498 67.6859 35.8389 67.6859C36.528 67.6859 37.0864 67.1275 37.0864 66.4384V64.9745C37.5496 65.0066 38.0206 65.0247 38.5001 65.0247C38.9796 65.0247 39.4507 65.0064 39.9139 64.9745V66.4384C39.9139 67.1275 40.4722 67.6859 41.1613 67.6859C41.8504 67.6859 42.4088 67.1275 42.4088 66.4384V64.637C47.1005 63.6738 50.3924 61.0094 50.3924 57.7895C50.3924 54.5697 47.1005 51.9053 42.4088 50.9421V41.5221C43.5216 41.7911 44.5412 42.1758 45.4156 42.6676ZM31.5847 48.961C30.0074 48.0738 29.1028 46.9269 29.1028 45.8143C29.1028 44.7018 30.0072 43.5548 31.5847 42.6676C32.459 42.1758 33.4786 41.7911 34.5915 41.5221V50.1063C33.4784 49.8375 32.459 49.4528 31.5847 48.961ZM38.5001 62.53C38.0221 62.53 37.5501 62.5108 37.0864 62.4741V52.9992C37.5496 53.0313 38.0206 53.0494 38.5001 53.0494C38.9781 53.0494 39.4502 53.0686 39.9139 53.1053V62.4741C39.4502 62.5108 38.9781 62.53 38.5001 62.53ZM45.4156 54.643C46.9928 55.5302 47.8975 56.677 47.8975 57.7897C47.8975 58.9021 46.993 60.0492 45.4156 60.9364C44.5412 61.4282 43.5216 61.8129 42.4088 62.0819V53.4977C43.5216 53.7665 44.5412 54.1512 45.4156 54.643ZM39.9139 50.605C39.4507 50.5729 38.9796 50.5547 38.5001 50.5547C38.0221 50.5547 37.5501 50.5356 37.0864 50.4989V41.1301C37.5501 41.0933 38.0221 41.0742 38.5001 41.0742C38.9781 41.0742 39.4502 41.0933 39.9139 41.1301V50.605Z" fill="white"/>
<path d="M45.6223 24.8666C46.1108 24.2142 46.4004 23.4047 46.4004 22.5288C46.4004 21.1268 45.6581 19.8954 44.546 19.2054C47.2734 17.2937 49.0616 14.1294 49.0616 10.5534V3.84383C49.0616 2.54833 48.4159 1.34913 47.3343 0.635924C46.2527 -0.0772777 44.8956 -0.198362 43.7056 0.312089L38.4999 2.54301L33.2945 0.312089C32.1037 -0.198196 30.7472 -0.0772777 29.6657 0.635924C28.5841 1.34913 27.9385 2.54833 27.9385 3.84383V10.5532C27.9385 14.1292 29.7266 17.2937 32.454 19.2053C31.3421 19.8952 30.5997 21.1265 30.5997 22.5286C30.5997 23.4045 30.8892 24.2142 31.3777 24.8665C19.4554 28.0217 10.6407 38.901 10.6407 51.8017V62.4466C10.6407 70.4715 17.1692 77.0001 25.1941 77.0001H51.8061C59.8309 77.0001 66.3595 70.4715 66.3595 62.4466V51.8017C66.3595 38.901 57.5448 28.0218 45.6223 24.8666ZM38.4888 23.9424H34.5083C33.7287 23.9424 33.0945 23.3082 33.0945 22.5286C33.0945 21.7491 33.7287 21.1149 34.5083 21.1149H38.4928C38.4951 21.1149 38.4974 21.1152 38.4998 21.1152C38.4999 21.1152 38.4999 21.1152 38.5001 21.1152C38.5003 21.1152 38.5003 21.1152 38.5004 21.1152C38.5028 21.1152 38.5051 21.1149 38.5074 21.1149H42.4919C43.2715 21.1149 43.9057 21.7491 43.9057 22.5286C43.9057 23.3082 43.2715 23.9424 42.4919 23.9424H38.5099C38.5072 23.9424 38.5048 23.9424 38.5021 23.9424H38.4994C38.4959 23.9424 38.4923 23.9424 38.4888 23.9424ZM30.4333 10.5532V3.84383C30.4333 3.38278 30.654 2.97262 31.0391 2.71881C31.2658 2.56929 31.5199 2.49361 31.7771 2.49361C31.9565 2.49361 32.1377 2.53053 32.312 2.60521L38.0089 5.04686C38.3228 5.18142 38.6777 5.18142 38.9916 5.04686L44.6886 2.60521C45.1127 2.42342 45.5764 2.46483 45.9613 2.71898C46.3461 2.97262 46.567 3.38278 46.567 3.844V10.5534C46.567 14.3336 43.9527 17.5134 40.4375 18.3835L42.3197 13.6778C42.5756 13.0381 42.2644 12.3123 41.6247 12.0563C40.9857 11.8005 40.259 12.1114 40.0032 12.7514L38.5003 16.5087L36.9973 12.7514C36.7415 12.1115 36.015 11.8008 35.3758 12.0563C34.7362 12.3123 34.425 13.0381 34.6808 13.6778L36.5631 18.3835C33.0476 17.5133 30.4333 14.3336 30.4333 10.5532ZM63.8647 62.4466C63.8647 69.0958 58.4553 74.5052 51.8061 74.5052H25.1941C18.5449 74.5052 13.1355 69.0958 13.1355 62.4466V51.8017C13.1355 38.6279 23.2315 27.769 36.0924 26.5522L34.8009 28.4894C34.4186 29.0625 34.5737 29.8371 35.1468 30.2192C35.3594 30.361 35.5999 30.4289 35.8376 30.4289C36.2407 30.4289 36.6363 30.2338 36.8766 29.8732L38.4999 27.4382L40.1233 29.8732C40.3636 30.2338 40.7591 30.4289 41.1623 30.4289C41.4001 30.4289 41.6405 30.361 41.853 30.2192C42.4262 29.8369 42.5812 29.0625 42.199 28.4894L40.9075 26.552C53.7686 27.7687 63.8647 38.6275 63.8647 51.8015V62.4466Z" fill="white"/>
</g>
<defs>
<clipPath id="clip0">
<rect width="77" height="77" fill="white"/>
</clipPath>
</defs>
</svg>
